<svg xmlns="http://www.w3.org/2000/svg" xmlns:xlink="http://www.w3.org/1999/xlink" zoomAndPan="magnify" preserveAspectRatio="xMidYMid meet" version="1.0" viewBox="0.16 0 186.67 112"><defs><g/><clipPath id="7a505759fd"><path d="M 0.164062 0 L 186.835938 0 L 186.835938 112.003906 L 0.164062 112.003906 Z M 0.164062 0 " clip-rule="nonzero"/></clipPath></defs><g clip-path="url(#7a505759fd)"><path fill="#ffffff" d="M 0.164062 0 L 186.835938 0 L 186.835938 112.003906 L 0.164062 112.003906 Z M 0.164062 0 " fill-opacity="1" fill-rule="nonzero"/><path fill="#ffffff" d="M 0.164062 0 L 186.835938 0 L 186.835938 112.003906 L 0.164062 112.003906 Z M 0.164062 0 " fill-opacity="1" fill-rule="nonzero"/></g><g fill="#3b2c27" fill-opacity="1"><g transform="translate(55.663934, 70.232169)"><g><path d="M 23.09375 8.859375 C 21.519531 8.859375 20.171875 8.582031 19.046875 8.03125 C 17.921875 7.476562 17.066406 6.671875 16.484375 5.609375 C 15.898438 4.554688 15.609375 3.3125 15.609375 1.875 C 15.609375 1.519531 15.617188 1.160156 15.640625 0.796875 C 15.671875 0.429688 15.71875 0.0546875 15.78125 -0.328125 C 13.550781 -0.328125 11.539062 -0.695312 9.75 -1.4375 C 7.96875 -2.1875 6.4375 -3.21875 5.15625 -4.53125 C 3.882812 -5.84375 2.910156 -7.363281 2.234375 -9.09375 C 1.554688 -10.832031 1.21875 -12.679688 1.21875 -14.640625 C 1.21875 -16.617188 1.554688 -18.46875 2.234375 -20.1875 C 2.910156 -21.90625 3.882812 -23.421875 5.15625 -24.734375 C 6.4375 -26.054688 7.96875 -27.085938 9.75 -27.828125 C 11.539062 -28.578125 13.535156 -28.953125 15.734375 -28.953125 C 17.929688 -28.953125 19.921875 -28.59375 21.703125 -27.875 C 23.492188 -27.15625 25.023438 -26.148438 26.296875 -24.859375 C 27.578125 -23.578125 28.554688 -22.097656 29.234375 -20.421875 C 29.910156 -18.753906 30.25 -16.960938 30.25 -15.046875 L 30.25 1.140625 C 30.25 2.546875 29.988281 3.835938 29.46875 5.015625 C 28.957031 6.203125 28.171875 7.140625 27.109375 7.828125 C 26.054688 8.515625 24.71875 8.859375 23.09375 8.859375 Z M 22.734375 3.65625 C 23.296875 3.65625 23.71875 3.429688 24 2.984375 C 24.289062 2.535156 24.4375 1.945312 24.4375 1.21875 L 24.4375 -5.9375 C 23.84375 -5.414062 23.328125 -4.890625 22.890625 -4.359375 C 22.453125 -3.835938 22.097656 -3.285156 21.828125 -2.703125 C 21.554688 -2.117188 21.351562 -1.5 21.21875 -0.84375 C 21.082031 -0.195312 21.015625 0.488281 21.015625 1.21875 C 21.015625 1.726562 21.085938 2.164062 21.234375 2.53125 C 21.390625 2.90625 21.601562 3.1875 21.875 3.375 C 22.144531 3.5625 22.429688 3.65625 22.734375 3.65625 Z M 15.734375 -5.453125 C 16.109375 -5.453125 16.472656 -5.46875 16.828125 -5.5 C 17.179688 -5.539062 17.535156 -5.601562 17.890625 -5.6875 C 18.347656 -6.394531 18.890625 -7.097656 19.515625 -7.796875 C 20.140625 -8.503906 20.859375 -9.195312 21.671875 -9.875 C 22.484375 -10.550781 23.40625 -11.203125 24.4375 -11.828125 L 24.4375 -15.046875 C 24.4375 -16.285156 24.21875 -17.441406 23.78125 -18.515625 C 23.351562 -19.585938 22.742188 -20.515625 21.953125 -21.296875 C 21.171875 -22.085938 20.25 -22.707031 19.1875 -23.15625 C 18.132812 -23.601562 16.984375 -23.828125 15.734375 -23.828125 C 14.484375 -23.828125 13.328125 -23.59375 12.265625 -23.125 C 11.210938 -22.664062 10.289062 -22.023438 9.5 -21.203125 C 8.71875 -20.378906 8.109375 -19.40625 7.671875 -18.28125 C 7.242188 -17.15625 7.03125 -15.941406 7.03125 -14.640625 C 7.03125 -13.335938 7.242188 -12.125 7.671875 -11 C 8.109375 -9.875 8.71875 -8.894531 9.5 -8.0625 C 10.289062 -7.238281 11.210938 -6.597656 12.265625 -6.140625 C 13.328125 -5.679688 14.484375 -5.453125 15.734375 -5.453125 Z M 15.734375 -5.453125 "/></g></g></g><g fill="#3b2c27" fill-opacity="1"><g transform="translate(87.948641, 70.232169)"><g><path d="M 2.640625 0 L 2.640625 -20.734375 L 8.25 -20.734375 L 8.25 0 Z M 5.453125 -23.21875 C 4.503906 -23.21875 3.679688 -23.5625 2.984375 -24.25 C 2.296875 -24.945312 1.953125 -25.769531 1.953125 -26.71875 C 1.953125 -27.664062 2.296875 -28.484375 2.984375 -29.171875 C 3.679688 -29.867188 4.503906 -30.21875 5.453125 -30.21875 C 6.398438 -30.21875 7.21875 -29.867188 7.90625 -29.171875 C 8.601562 -28.484375 8.953125 -27.664062 8.953125 -26.71875 C 8.953125 -25.769531 8.601562 -24.945312 7.90625 -24.25 C 7.21875 -23.5625 6.398438 -23.21875 5.453125 -23.21875 Z M 5.453125 -23.21875 "/></g></g></g><g fill="#3b2c27" fill-opacity="1"><g transform="translate(98.805087, 70.232169)"><g><path d="M 2.640625 0 L 2.640625 -29.671875 L 8.21875 -29.671875 L 8.21875 0 Z M 2.640625 0 "/></g></g></g><g fill="#3b2c27" fill-opacity="1"><g transform="translate(109.661533, 70.232169)"><g><path d="M 2.640625 0 L 2.640625 -29.671875 L 8.21875 -29.671875 L 8.21875 0 Z M 2.640625 0 "/></g></g></g><g fill="#3b2c27" fill-opacity="1"><g transform="translate(120.517978, 70.232169)"><g><path d="M 5.40625 0.484375 C 4.375 0.484375 3.484375 0.113281 2.734375 -0.625 C 1.992188 -1.375 1.625 -2.265625 1.625 -3.296875 C 1.625 -4.328125 1.992188 -5.210938 2.734375 -5.953125 C 3.484375 -6.703125 4.375 -7.078125 5.40625 -7.078125 C 6.4375 -7.078125 7.320312 -6.703125 8.0625 -5.953125 C 8.8125 -5.210938 9.1875 -4.328125 9.1875 -3.296875 C 9.1875 -2.617188 9.015625 -1.988281 8.671875 -1.40625 C 8.335938 -0.820312 7.882812 -0.359375 7.3125 -0.015625 C 6.75 0.316406 6.113281 0.484375 5.40625 0.484375 Z M 5.40625 0.484375 "/></g></g></g></svg>