<svg xmlns="http://www.w3.org/2000/svg" xmlns:xlink="http://www.w3.org/1999/xlink" width="250" zoomAndPan="magnify" viewBox="0 0 187.5 112.499997" height="150" preserveAspectRatio="xMidYMid meet" version="1.0"><defs><g/><clipPath id="abe60130b2"><path d="M 0.164062 0 L 186.835938 0 L 186.835938 112.003906 L 0.164062 112.003906 Z M 0.164062 0 " clip-rule="nonzero"/></clipPath></defs><g clip-path="url(#abe60130b2)"><path fill="#ffffff" d="M 0.164062 0 L 186.835938 0 L 186.835938 112.003906 L 0.164062 112.003906 Z M 0.164062 0 " fill-opacity="1" fill-rule="nonzero"/><path fill="#ffffff" d="M 0.164062 0 L 186.835938 0 L 186.835938 112.003906 L 0.164062 112.003906 Z M 0.164062 0 " fill-opacity="1" fill-rule="nonzero"/></g><g fill="#3b2c27" fill-opacity="1"><g transform="translate(24.285484, 77.011157)"><g><path d="M 41.84375 16.0625 C 39 16.0625 36.554688 15.554688 34.515625 14.546875 C 32.472656 13.546875 30.925781 12.085938 29.875 10.171875 C 28.820312 8.253906 28.296875 5.992188 28.296875 3.390625 C 28.296875 2.753906 28.316406 2.101562 28.359375 1.4375 C 28.410156 0.769531 28.484375 0.09375 28.578125 -0.59375 C 24.554688 -0.59375 20.921875 -1.265625 17.671875 -2.609375 C 14.429688 -3.960938 11.65625 -5.828125 9.34375 -8.203125 C 7.039062 -10.585938 5.273438 -13.351562 4.046875 -16.5 C 2.816406 -19.644531 2.203125 -22.984375 2.203125 -26.515625 C 2.203125 -30.109375 2.816406 -33.460938 4.046875 -36.578125 C 5.273438 -39.691406 7.039062 -42.441406 9.34375 -44.828125 C 11.65625 -47.210938 14.429688 -49.078125 17.671875 -50.421875 C 20.921875 -51.773438 24.535156 -52.453125 28.515625 -52.453125 C 32.492188 -52.453125 36.101562 -51.800781 39.34375 -50.5 C 42.582031 -49.195312 45.351562 -47.378906 47.65625 -45.046875 C 49.96875 -42.710938 51.738281 -40.035156 52.96875 -37.015625 C 54.195312 -33.992188 54.8125 -30.742188 54.8125 -27.265625 L 54.8125 2.0625 C 54.8125 4.613281 54.34375 6.957031 53.40625 9.09375 C 52.476562 11.226562 51.054688 12.921875 49.140625 14.171875 C 47.222656 15.429688 44.789062 16.0625 41.84375 16.0625 Z M 41.1875 6.625 C 42.21875 6.625 42.988281 6.21875 43.5 5.40625 C 44.019531 4.601562 44.28125 3.535156 44.28125 2.203125 L 44.28125 -10.75 C 43.195312 -9.820312 42.257812 -8.878906 41.46875 -7.921875 C 40.6875 -6.960938 40.050781 -5.953125 39.5625 -4.890625 C 39.070312 -3.835938 38.703125 -2.722656 38.453125 -1.546875 C 38.210938 -0.367188 38.09375 0.878906 38.09375 2.203125 C 38.09375 3.140625 38.226562 3.9375 38.5 4.59375 C 38.769531 5.257812 39.148438 5.765625 39.640625 6.109375 C 40.128906 6.453125 40.644531 6.625 41.1875 6.625 Z M 28.515625 -9.875 C 29.203125 -9.875 29.863281 -9.910156 30.5 -9.984375 C 31.132812 -10.054688 31.773438 -10.164062 32.421875 -10.3125 C 33.253906 -11.59375 34.234375 -12.867188 35.359375 -14.140625 C 36.492188 -15.421875 37.796875 -16.675781 39.265625 -17.90625 C 40.742188 -19.132812 42.414062 -20.3125 44.28125 -21.4375 L 44.28125 -27.265625 C 44.28125 -29.515625 43.882812 -31.609375 43.09375 -33.546875 C 42.3125 -35.492188 41.207031 -37.175781 39.78125 -38.59375 C 38.351562 -40.019531 36.679688 -41.140625 34.765625 -41.953125 C 32.859375 -42.765625 30.773438 -43.171875 28.515625 -43.171875 C 26.253906 -43.171875 24.164062 -42.753906 22.25 -41.921875 C 20.332031 -41.085938 18.660156 -39.921875 17.234375 -38.421875 C 15.816406 -36.921875 14.710938 -35.148438 13.921875 -33.109375 C 13.140625 -31.078125 12.75 -28.878906 12.75 -26.515625 C 12.75 -24.160156 13.140625 -21.960938 13.921875 -19.921875 C 14.710938 -17.890625 15.816406 -16.125 17.234375 -14.625 C 18.660156 -13.125 20.332031 -11.957031 22.25 -11.125 C 24.164062 -10.289062 26.253906 -9.875 28.515625 -9.875 Z M 28.515625 -9.875 "/></g></g></g><g fill="#3b2c27" fill-opacity="1"><g transform="translate(82.775281, 77.011157)"><g><path d="M 39.9375 0.8125 C 37.03125 0.8125 34.410156 0.148438 32.078125 -1.171875 C 29.742188 -2.503906 27.914062 -4.320312 26.59375 -6.625 C 25.269531 -8.9375 24.609375 -11.59375 24.609375 -14.59375 L 24.609375 -38.3125 C 24.609375 -39.195312 24.382812 -40.003906 23.9375 -40.734375 C 23.5 -41.472656 22.910156 -42.0625 22.171875 -42.5 C 21.429688 -42.945312 20.625 -43.171875 19.75 -43.171875 C 18.863281 -43.171875 18.0625 -42.945312 17.34375 -42.5 C 16.632812 -42.0625 16.054688 -41.472656 15.609375 -40.734375 C 15.171875 -40.003906 14.953125 -39.195312 14.953125 -38.3125 L 14.953125 0 L 4.421875 0 L 4.421875 -37.0625 C 4.421875 -39.90625 5.054688 -42.476562 6.328125 -44.78125 C 7.609375 -47.09375 9.398438 -48.945312 11.703125 -50.34375 C 14.015625 -51.75 16.695312 -52.453125 19.75 -52.453125 C 22.84375 -52.453125 25.539062 -51.75 27.84375 -50.34375 C 30.15625 -48.945312 31.945312 -47.09375 33.21875 -44.78125 C 34.5 -42.476562 35.140625 -39.90625 35.140625 -37.0625 L 35.140625 -13.328125 C 35.140625 -12.453125 35.359375 -11.644531 35.796875 -10.90625 C 36.242188 -10.164062 36.820312 -9.570312 37.53125 -9.125 C 38.25 -8.6875 39.050781 -8.46875 39.9375 -8.46875 C 40.8125 -8.46875 41.617188 -8.6875 42.359375 -9.125 C 43.097656 -9.570312 43.6875 -10.164062 44.125 -10.90625 C 44.570312 -11.644531 44.796875 -12.453125 44.796875 -13.328125 L 44.796875 -37.0625 C 44.796875 -39.90625 45.429688 -42.476562 46.703125 -44.78125 C 47.984375 -47.09375 49.789062 -48.945312 52.125 -50.34375 C 54.457031 -51.75 57.144531 -52.453125 60.1875 -52.453125 C 63.28125 -52.453125 65.96875 -51.75 68.25 -50.34375 C 70.539062 -48.945312 72.320312 -47.09375 73.59375 -44.78125 C 74.875 -42.476562 75.515625 -39.90625 75.515625 -37.0625 L 75.515625 0 L 64.984375 0 L 64.984375 -38.3125 C 64.984375 -39.195312 64.769531 -40.003906 64.34375 -40.734375 C 63.925781 -41.472656 63.347656 -42.0625 62.609375 -42.5 C 61.878906 -42.945312 61.070312 -43.171875 60.1875 -43.171875 C 59.300781 -43.171875 58.488281 -42.945312 57.75 -42.5 C 57.019531 -42.0625 56.429688 -41.472656 55.984375 -40.734375 C 55.546875 -40.003906 55.328125 -39.195312 55.328125 -38.3125 L 55.328125 -14.59375 C 55.328125 -11.59375 54.648438 -8.9375 53.296875 -6.625 C 51.953125 -4.320312 50.125 -2.503906 47.8125 -1.171875 C 45.5 0.148438 42.875 0.8125 39.9375 0.8125 Z M 39.9375 0.8125 "/></g></g></g><g fill="#3b2c27" fill-opacity="1"><g transform="translate(82.471021, 88.168861)"><g><path d="M 3.03125 -5.421875 C 4.144531 -5.421875 4.9375 -4.929688 5.40625 -3.953125 L 4.109375 -3.421875 C 4.003906 -3.679688 3.851562 -3.882812 3.65625 -4.03125 C 3.457031 -4.175781 3.226562 -4.25 2.96875 -4.25 C 2.570312 -4.25 2.242188 -4.085938 1.984375 -3.765625 C 1.734375 -3.453125 1.609375 -3.0625 1.609375 -2.59375 C 1.609375 -2.3125 1.660156 -2.039062 1.765625 -1.78125 C 1.878906 -1.53125 2.039062 -1.328125 2.25 -1.171875 C 2.46875 -1.023438 2.710938 -0.953125 2.984375 -0.953125 C 3.304688 -0.953125 3.5625 -1.03125 3.75 -1.1875 C 3.945312 -1.351562 4.0625 -1.578125 4.09375 -1.859375 L 2.96875 -1.859375 L 2.96875 -2.9375 L 5.6875 -2.9375 C 5.675781 -2.28125 5.597656 -1.773438 5.453125 -1.421875 C 5.316406 -1.078125 5.125 -0.78125 4.875 -0.53125 C 4.632812 -0.289062 4.351562 -0.113281 4.03125 0 C 3.71875 0.113281 3.367188 0.171875 2.984375 0.171875 C 2.148438 0.171875 1.472656 -0.0820312 0.953125 -0.59375 C 0.441406 -1.113281 0.1875 -1.78125 0.1875 -2.59375 C 0.1875 -3.445312 0.441406 -4.128906 0.953125 -4.640625 C 1.472656 -5.160156 2.164062 -5.421875 3.03125 -5.421875 Z M 3.03125 -5.421875 "/></g></g></g><g fill="#3b2c27" fill-opacity="1"><g transform="translate(88.959232, 88.168861)"><g><path d="M 1.8125 -5.25 L 1.8125 0 L 0.453125 0 L 0.453125 -5.25 Z M 1.8125 -5.25 "/></g></g></g><g fill="#3b2c27" fill-opacity="1"><g transform="translate(91.837463, 88.168861)"><g><path d="M 1.8125 -5.25 L 1.8125 -1.15625 L 3.453125 -1.15625 L 3.453125 0 L 0.453125 0 L 0.453125 -5.25 Z M 1.8125 -5.25 "/></g></g></g><g fill="#3b2c27" fill-opacity="1"><g transform="translate(95.907408, 88.168861)"><g><path d="M 1.8125 -5.25 L 1.8125 -1.15625 L 3.453125 -1.15625 L 3.453125 0 L 0.453125 0 L 0.453125 -5.25 Z M 1.8125 -5.25 "/></g></g></g><g fill="#3b2c27" fill-opacity="1"><g transform="translate(99.977354, 88.168861)"><g><path d="M 1.8125 -5.25 L 1.8125 0 L 0.453125 0 L 0.453125 -5.25 Z M 1.8125 -5.25 "/></g></g></g><g fill="#3b2c27" fill-opacity="1"><g transform="translate(102.855585, 88.168861)"><g><path d="M 3.484375 -5.25 L 5.46875 0 L 4 0 L 3.671875 -0.90625 L 1.78125 -0.90625 L 1.421875 0 L -0.03125 0 L 2 -5.25 Z M 2.15625 -1.953125 L 3.296875 -1.953125 L 2.734375 -3.625 L 2.71875 -3.625 Z M 2.15625 -1.953125 "/></g></g></g><g fill="#3b2c27" fill-opacity="1"><g transform="translate(108.918689, 88.168861)"><g><path d="M 1.8125 -5.25 L 4.3125 -2.046875 L 4.328125 -2.046875 L 4.328125 -5.25 L 5.6875 -5.25 L 5.6875 0 L 4.328125 0 L 1.828125 -3.21875 L 1.8125 -3.21875 L 1.8125 0 L 0.453125 0 L 0.453125 -5.25 Z M 1.8125 -5.25 "/></g></g></g><g fill="#3b2c27" fill-opacity="1"><g transform="translate(115.678696, 88.168861)"><g/></g></g><g fill="#3b2c27" fill-opacity="1"><g transform="translate(118.689336, 88.168861)"><g><path d="M 2.375 -5.25 L 3.4375 -2.453125 L 4.5625 -5.25 L 5.921875 -5.25 L 6.71875 0 L 5.359375 0 L 4.96875 -3.03125 L 4.953125 -3.03125 L 3.6875 0 L 3.15625 0 L 1.9375 -3.03125 L 1.484375 0 L 0.125 0 L 1.03125 -5.25 Z M 2.375 -5.25 "/></g></g></g><g fill="#3b2c27" fill-opacity="1"><g transform="translate(126.16019, 88.168861)"><g><path d="M 3.484375 -5.25 L 5.46875 0 L 4 0 L 3.671875 -0.90625 L 1.78125 -0.90625 L 1.421875 0 L -0.03125 0 L 2 -5.25 Z M 2.15625 -1.953125 L 3.296875 -1.953125 L 2.734375 -3.625 L 2.71875 -3.625 Z M 2.15625 -1.953125 "/></g></g></g><g fill="#3b2c27" fill-opacity="1"><g transform="translate(132.223294, 88.168861)"><g><path d="M 2.515625 -5.25 C 3.066406 -5.25 3.503906 -5.109375 3.828125 -4.828125 C 4.148438 -4.546875 4.3125 -4.148438 4.3125 -3.640625 C 4.3125 -3.253906 4.207031 -2.925781 4 -2.65625 C 3.800781 -2.394531 3.519531 -2.226562 3.15625 -2.15625 L 4.8125 0 L 3.109375 0 L 1.828125 -2.015625 L 1.8125 -2.015625 L 1.8125 0 L 0.453125 0 L 0.453125 -5.25 Z M 1.8125 -2.90625 L 1.9375 -2.90625 C 2.269531 -2.90625 2.507812 -2.957031 2.65625 -3.0625 C 2.8125 -3.164062 2.890625 -3.328125 2.890625 -3.546875 C 2.890625 -3.773438 2.8125 -3.941406 2.65625 -4.046875 C 2.507812 -4.148438 2.269531 -4.203125 1.9375 -4.203125 L 1.8125 -4.203125 Z M 1.8125 -2.90625 "/></g></g></g><g fill="#3b2c27" fill-opacity="1"><g transform="translate(137.582522, 88.168861)"><g><path d="M 6 -2.71875 C 6 -2.164062 5.867188 -1.664062 5.609375 -1.21875 C 5.359375 -0.78125 5.007812 -0.4375 4.5625 -0.1875 C 4.125 0.0507812 3.644531 0.171875 3.125 0.171875 C 2.550781 0.171875 2.039062 0.046875 1.59375 -0.203125 C 1.144531 -0.453125 0.796875 -0.789062 0.546875 -1.21875 C 0.304688 -1.65625 0.1875 -2.132812 0.1875 -2.65625 C 0.1875 -3.132812 0.296875 -3.582031 0.515625 -4 C 0.742188 -4.414062 1.085938 -4.753906 1.546875 -5.015625 C 2.015625 -5.285156 2.53125 -5.421875 3.09375 -5.421875 C 3.601562 -5.421875 4.082031 -5.300781 4.53125 -5.0625 C 4.976562 -4.832031 5.332031 -4.507812 5.59375 -4.09375 C 5.863281 -3.6875 6 -3.226562 6 -2.71875 Z M 3.09375 -1.15625 C 3.507812 -1.15625 3.859375 -1.304688 4.140625 -1.609375 C 4.429688 -1.910156 4.578125 -2.28125 4.578125 -2.71875 C 4.578125 -3.082031 4.425781 -3.40625 4.125 -3.6875 C 3.832031 -3.96875 3.484375 -4.109375 3.078125 -4.109375 C 2.691406 -4.109375 2.347656 -3.972656 2.046875 -3.703125 C 1.753906 -3.429688 1.609375 -3.101562 1.609375 -2.71875 C 1.609375 -2.269531 1.75 -1.894531 2.03125 -1.59375 C 2.320312 -1.300781 2.675781 -1.15625 3.09375 -1.15625 Z M 3.09375 -1.15625 "/></g></g></g><g fill="#3b2c27" fill-opacity="1"><g transform="translate(144.384346, 88.168861)"><g><path d="M 1.8125 -5.25 L 4.3125 -2.046875 L 4.328125 -2.046875 L 4.328125 -5.25 L 5.6875 -5.25 L 5.6875 0 L 4.328125 0 L 1.828125 -3.21875 L 1.8125 -3.21875 L 1.8125 0 L 0.453125 0 L 0.453125 -5.25 Z M 1.8125 -5.25 "/></g></g></g><g fill="#3b2c27" fill-opacity="1"><g transform="translate(151.144352, 88.168861)"><g><path d="M 1.8125 -5.25 L 1.8125 0 L 0.453125 0 L 0.453125 -5.25 Z M 1.8125 -5.25 "/></g></g></g><g fill="#3b2c27" fill-opacity="1"><g transform="translate(154.022583, 88.168861)"><g><path d="M 1.8125 -5.25 L 1.8125 -1.15625 L 3.453125 -1.15625 L 3.453125 0 L 0.453125 0 L 0.453125 -5.25 Z M 1.8125 -5.25 "/></g></g></g><g fill="#3b2c27" fill-opacity="1"><g transform="translate(158.09253, 88.168861)"><g><path d="M 1.8125 -5.25 L 1.8125 -1.15625 L 3.453125 -1.15625 L 3.453125 0 L 0.453125 0 L 0.453125 -5.25 Z M 1.8125 -5.25 "/></g></g></g><g fill="#3b2c27" fill-opacity="1"><g transform="translate(162.162472, 88.168861)"><g><path d="M 3.484375 -5.25 L 5.46875 0 L 4 0 L 3.671875 -0.90625 L 1.78125 -0.90625 L 1.421875 0 L -0.03125 0 L 2 -5.25 Z M 2.15625 -1.953125 L 3.296875 -1.953125 L 2.734375 -3.625 L 2.71875 -3.625 Z M 2.15625 -1.953125 "/></g></g></g></svg>