<svg xmlns="http://www.w3.org/2000/svg" xmlns:xlink="http://www.w3.org/1999/xlink" width="250" zoomAndPan="magnify" viewBox="0 0 187.5 112.499997" height="150" preserveAspectRatio="xMidYMid meet" version="1.0"><defs><g/><clipPath id="4d3d0e9b6c"><path d="M 0.164062 0 L 186.835938 0 L 186.835938 112.003906 L 0.164062 112.003906 Z M 0.164062 0 " clip-rule="nonzero"/></clipPath></defs><g clip-path="url(#4d3d0e9b6c)"><path fill="#ffffff" d="M 0.164062 0 L 186.835938 0 L 186.835938 112.003906 L 0.164062 112.003906 Z M 0.164062 0 " fill-opacity="1" fill-rule="nonzero"/><path fill="#ffffff" d="M 0.164062 0 L 186.835938 0 L 186.835938 112.003906 L 0.164062 112.003906 Z M 0.164062 0 " fill-opacity="1" fill-rule="nonzero"/></g><g fill="#3b2c27" fill-opacity="1"><g transform="translate(57.194146, 67.947903)"><g><path d="M 21.703125 8.328125 C 20.222656 8.328125 18.953125 8.066406 17.890625 7.546875 C 16.835938 7.023438 16.035156 6.265625 15.484375 5.265625 C 14.941406 4.273438 14.671875 3.109375 14.671875 1.765625 C 14.671875 1.429688 14.679688 1.09375 14.703125 0.75 C 14.734375 0.40625 14.773438 0.0507812 14.828125 -0.3125 C 12.734375 -0.3125 10.847656 -0.660156 9.171875 -1.359375 C 7.492188 -2.054688 6.054688 -3.019531 4.859375 -4.25 C 3.660156 -5.488281 2.738281 -6.921875 2.09375 -8.546875 C 1.457031 -10.179688 1.140625 -11.921875 1.140625 -13.765625 C 1.140625 -15.617188 1.457031 -17.351562 2.09375 -18.96875 C 2.738281 -20.59375 3.660156 -22.019531 4.859375 -23.25 C 6.054688 -24.488281 7.492188 -25.457031 9.171875 -26.15625 C 10.847656 -26.863281 12.722656 -27.21875 14.796875 -27.21875 C 16.859375 -27.21875 18.726562 -26.878906 20.40625 -26.203125 C 22.09375 -25.523438 23.535156 -24.582031 24.734375 -23.375 C 25.929688 -22.164062 26.847656 -20.773438 27.484375 -19.203125 C 28.117188 -17.640625 28.4375 -15.953125 28.4375 -14.140625 L 28.4375 1.0625 C 28.4375 2.394531 28.191406 3.613281 27.703125 4.71875 C 27.222656 5.820312 26.484375 6.695312 25.484375 7.34375 C 24.492188 8 23.234375 8.328125 21.703125 8.328125 Z M 21.359375 3.4375 C 21.898438 3.4375 22.300781 3.222656 22.5625 2.796875 C 22.832031 2.378906 22.96875 1.828125 22.96875 1.140625 L 22.96875 -5.578125 C 22.40625 -5.097656 21.921875 -4.609375 21.515625 -4.109375 C 21.109375 -3.609375 20.773438 -3.082031 20.515625 -2.53125 C 20.265625 -1.988281 20.078125 -1.410156 19.953125 -0.796875 C 19.828125 -0.191406 19.765625 0.453125 19.765625 1.140625 C 19.765625 1.628906 19.832031 2.046875 19.96875 2.390625 C 20.101562 2.734375 20.296875 2.992188 20.546875 3.171875 C 20.804688 3.347656 21.078125 3.4375 21.359375 3.4375 Z M 14.796875 -5.125 C 15.148438 -5.125 15.488281 -5.140625 15.8125 -5.171875 C 16.144531 -5.210938 16.476562 -5.269531 16.8125 -5.34375 C 17.25 -6.007812 17.757812 -6.671875 18.34375 -7.328125 C 18.925781 -7.992188 19.597656 -8.644531 20.359375 -9.28125 C 21.128906 -9.925781 22 -10.539062 22.96875 -11.125 L 22.96875 -14.140625 C 22.96875 -15.316406 22.765625 -16.40625 22.359375 -17.40625 C 21.953125 -18.414062 21.378906 -19.289062 20.640625 -20.03125 C 19.898438 -20.769531 19.03125 -21.347656 18.03125 -21.765625 C 17.039062 -22.179688 15.960938 -22.390625 14.796875 -22.390625 C 13.617188 -22.390625 12.53125 -22.171875 11.53125 -21.734375 C 10.539062 -21.304688 9.675781 -20.703125 8.9375 -19.921875 C 8.195312 -19.148438 7.625 -18.234375 7.21875 -17.171875 C 6.8125 -16.117188 6.609375 -14.984375 6.609375 -13.765625 C 6.609375 -12.535156 6.8125 -11.390625 7.21875 -10.328125 C 7.625 -9.273438 8.195312 -8.359375 8.9375 -7.578125 C 9.675781 -6.804688 10.539062 -6.203125 11.53125 -5.765625 C 12.53125 -5.335938 13.617188 -5.125 14.796875 -5.125 Z M 14.796875 -5.125 "/></g></g></g><g fill="#3b2c27" fill-opacity="1"><g transform="translate(87.545516, 67.947903)"><g><path d="M 20.71875 0.421875 C 19.207031 0.421875 17.847656 0.078125 16.640625 -0.609375 C 15.429688 -1.296875 14.484375 -2.238281 13.796875 -3.4375 C 13.109375 -4.632812 12.765625 -6.007812 12.765625 -7.5625 L 12.765625 -19.875 C 12.765625 -20.332031 12.648438 -20.75 12.421875 -21.125 C 12.191406 -21.507812 11.882812 -21.816406 11.5 -22.046875 C 11.125 -22.273438 10.707031 -22.390625 10.25 -22.390625 C 9.78125 -22.390625 9.363281 -22.273438 9 -22.046875 C 8.632812 -21.816406 8.335938 -21.507812 8.109375 -21.125 C 7.878906 -20.75 7.765625 -20.332031 7.765625 -19.875 L 7.765625 0 L 2.296875 0 L 2.296875 -19.21875 C 2.296875 -20.695312 2.625 -22.035156 3.28125 -23.234375 C 3.945312 -24.429688 4.878906 -25.394531 6.078125 -26.125 C 7.273438 -26.851562 8.664062 -27.21875 10.25 -27.21875 C 11.851562 -27.21875 13.253906 -26.851562 14.453125 -26.125 C 15.648438 -25.394531 16.578125 -24.429688 17.234375 -23.234375 C 17.898438 -22.035156 18.234375 -20.695312 18.234375 -19.21875 L 18.234375 -6.921875 C 18.234375 -6.460938 18.347656 -6.039062 18.578125 -5.65625 C 18.804688 -5.269531 19.101562 -4.960938 19.46875 -4.734375 C 19.84375 -4.503906 20.257812 -4.390625 20.71875 -4.390625 C 21.175781 -4.390625 21.59375 -4.503906 21.96875 -4.734375 C 22.351562 -4.960938 22.660156 -5.269531 22.890625 -5.65625 C 23.117188 -6.039062 23.234375 -6.460938 23.234375 -6.921875 L 23.234375 -19.21875 C 23.234375 -20.695312 23.5625 -22.035156 24.21875 -23.234375 C 24.882812 -24.429688 25.820312 -25.394531 27.03125 -26.125 C 28.25 -26.851562 29.644531 -27.21875 31.21875 -27.21875 C 32.820312 -27.21875 34.21875 -26.851562 35.40625 -26.125 C 36.59375 -25.394531 37.515625 -24.429688 38.171875 -23.234375 C 38.835938 -22.035156 39.171875 -20.695312 39.171875 -19.21875 L 39.171875 0 L 33.703125 0 L 33.703125 -19.875 C 33.703125 -20.332031 33.59375 -20.75 33.375 -21.125 C 33.164062 -21.507812 32.867188 -21.816406 32.484375 -22.046875 C 32.097656 -22.273438 31.675781 -22.390625 31.21875 -22.390625 C 30.757812 -22.390625 30.335938 -22.273438 29.953125 -22.046875 C 29.578125 -21.816406 29.273438 -21.507812 29.046875 -21.125 C 28.816406 -20.75 28.703125 -20.332031 28.703125 -19.875 L 28.703125 -7.5625 C 28.703125 -6.007812 28.347656 -4.632812 27.640625 -3.4375 C 26.941406 -2.238281 25.992188 -1.296875 24.796875 -0.609375 C 23.597656 0.078125 22.238281 0.421875 20.71875 0.421875 Z M 20.71875 0.421875 "/></g></g></g><g fill="#3b2c27" fill-opacity="1"><g transform="translate(86.81371, 72.638786)"><g><path d="M 1.546875 -2.78125 C 2.117188 -2.78125 2.523438 -2.53125 2.765625 -2.03125 L 2.09375 -1.75 C 2.039062 -1.882812 1.960938 -1.988281 1.859375 -2.0625 C 1.765625 -2.132812 1.648438 -2.171875 1.515625 -2.171875 C 1.316406 -2.171875 1.148438 -2.085938 1.015625 -1.921875 C 0.878906 -1.765625 0.8125 -1.566406 0.8125 -1.328125 C 0.8125 -1.179688 0.84375 -1.039062 0.90625 -0.90625 C 0.96875 -0.78125 1.050781 -0.675781 1.15625 -0.59375 C 1.257812 -0.519531 1.382812 -0.484375 1.53125 -0.484375 C 1.695312 -0.484375 1.828125 -0.523438 1.921875 -0.609375 C 2.015625 -0.691406 2.070312 -0.804688 2.09375 -0.953125 L 1.515625 -0.953125 L 1.515625 -1.5 L 2.90625 -1.5 C 2.90625 -1.164062 2.867188 -0.910156 2.796875 -0.734375 C 2.722656 -0.554688 2.625 -0.40625 2.5 -0.28125 C 2.375 -0.15625 2.226562 -0.0625 2.0625 0 C 1.90625 0.0625 1.726562 0.09375 1.53125 0.09375 C 1.101562 0.09375 0.753906 -0.0351562 0.484375 -0.296875 C 0.222656 -0.566406 0.09375 -0.910156 0.09375 -1.328125 C 0.09375 -1.765625 0.222656 -2.113281 0.484375 -2.375 C 0.753906 -2.644531 1.109375 -2.78125 1.546875 -2.78125 Z M 1.546875 -2.78125 "/></g></g></g><g fill="#3b2c27" fill-opacity="1"><g transform="translate(90.134048, 72.638786)"><g><path d="M 0.921875 -2.6875 L 0.921875 0 L 0.234375 0 L 0.234375 -2.6875 Z M 0.921875 -2.6875 "/></g></g></g><g fill="#3b2c27" fill-opacity="1"><g transform="translate(91.60705, 72.638786)"><g><path d="M 0.921875 -2.6875 L 0.921875 -0.59375 L 1.765625 -0.59375 L 1.765625 0 L 0.234375 0 L 0.234375 -2.6875 Z M 0.921875 -2.6875 "/></g></g></g><g fill="#3b2c27" fill-opacity="1"><g transform="translate(93.689885, 72.638786)"><g><path d="M 0.921875 -2.6875 L 0.921875 -0.59375 L 1.765625 -0.59375 L 1.765625 0 L 0.234375 0 L 0.234375 -2.6875 Z M 0.921875 -2.6875 "/></g></g></g><g fill="#3b2c27" fill-opacity="1"><g transform="translate(95.772721, 72.638786)"><g><path d="M 0.921875 -2.6875 L 0.921875 0 L 0.234375 0 L 0.234375 -2.6875 Z M 0.921875 -2.6875 "/></g></g></g><g fill="#3b2c27" fill-opacity="1"><g transform="translate(97.245723, 72.638786)"><g><path d="M 1.78125 -2.6875 L 2.796875 0 L 2.046875 0 L 1.875 -0.46875 L 0.90625 -0.46875 L 0.734375 0 L -0.015625 0 L 1.015625 -2.6875 Z M 1.109375 -1 L 1.6875 -1 L 1.40625 -1.859375 L 1.390625 -1.859375 Z M 1.109375 -1 "/></g></g></g><g fill="#3b2c27" fill-opacity="1"><g transform="translate(100.348516, 72.638786)"><g><path d="M 0.921875 -2.6875 L 2.203125 -1.046875 L 2.21875 -1.046875 L 2.21875 -2.6875 L 2.90625 -2.6875 L 2.90625 0 L 2.21875 0 L 0.9375 -1.640625 L 0.921875 -1.640625 L 0.921875 0 L 0.234375 0 L 0.234375 -2.6875 Z M 0.921875 -2.6875 "/></g></g></g><g fill="#3b2c27" fill-opacity="1"><g transform="translate(103.807939, 72.638786)"><g/></g></g><g fill="#3b2c27" fill-opacity="1"><g transform="translate(105.3487, 72.638786)"><g><path d="M 1.21875 -2.6875 L 1.75 -1.25 L 2.328125 -2.6875 L 3.03125 -2.6875 L 3.4375 0 L 2.734375 0 L 2.546875 -1.546875 L 2.53125 -1.546875 L 1.890625 0 L 1.609375 0 L 1 -1.546875 L 0.984375 -1.546875 L 0.765625 0 L 0.0625 0 L 0.53125 -2.6875 Z M 1.21875 -2.6875 "/></g></g></g><g fill="#3b2c27" fill-opacity="1"><g transform="translate(109.171883, 72.638786)"><g><path d="M 1.78125 -2.6875 L 2.796875 0 L 2.046875 0 L 1.875 -0.46875 L 0.90625 -0.46875 L 0.734375 0 L -0.015625 0 L 1.015625 -2.6875 Z M 1.109375 -1 L 1.6875 -1 L 1.40625 -1.859375 L 1.390625 -1.859375 Z M 1.109375 -1 "/></g></g></g><g fill="#3b2c27" fill-opacity="1"><g transform="translate(112.274676, 72.638786)"><g><path d="M 1.28125 -2.6875 C 1.5625 -2.6875 1.785156 -2.613281 1.953125 -2.46875 C 2.117188 -2.320312 2.203125 -2.117188 2.203125 -1.859375 C 2.203125 -1.660156 2.148438 -1.492188 2.046875 -1.359375 C 1.941406 -1.222656 1.800781 -1.132812 1.625 -1.09375 L 2.46875 0 L 1.59375 0 L 0.9375 -1.03125 L 0.921875 -1.03125 L 0.921875 0 L 0.234375 0 L 0.234375 -2.6875 Z M 0.921875 -1.484375 L 0.984375 -1.484375 C 1.160156 -1.484375 1.285156 -1.507812 1.359375 -1.5625 C 1.441406 -1.613281 1.484375 -1.695312 1.484375 -1.8125 C 1.484375 -1.925781 1.441406 -2.007812 1.359375 -2.0625 C 1.285156 -2.125 1.160156 -2.15625 0.984375 -2.15625 L 0.921875 -2.15625 Z M 0.921875 -1.484375 "/></g></g></g><g fill="#3b2c27" fill-opacity="1"><g transform="translate(115.017275, 72.638786)"><g><path d="M 3.0625 -1.390625 C 3.0625 -1.109375 2.992188 -0.851562 2.859375 -0.625 C 2.734375 -0.394531 2.554688 -0.21875 2.328125 -0.09375 C 2.109375 0.03125 1.863281 0.09375 1.59375 0.09375 C 1.300781 0.09375 1.039062 0.03125 0.8125 -0.09375 C 0.582031 -0.226562 0.40625 -0.40625 0.28125 -0.625 C 0.15625 -0.851562 0.09375 -1.097656 0.09375 -1.359375 C 0.09375 -1.609375 0.148438 -1.835938 0.265625 -2.046875 C 0.378906 -2.253906 0.554688 -2.425781 0.796875 -2.5625 C 1.035156 -2.707031 1.296875 -2.78125 1.578125 -2.78125 C 1.835938 -2.78125 2.082031 -2.71875 2.3125 -2.59375 C 2.539062 -2.476562 2.722656 -2.3125 2.859375 -2.09375 C 2.992188 -1.882812 3.0625 -1.648438 3.0625 -1.390625 Z M 1.578125 -0.59375 C 1.796875 -0.59375 1.976562 -0.671875 2.125 -0.828125 C 2.269531 -0.984375 2.34375 -1.171875 2.34375 -1.390625 C 2.34375 -1.578125 2.265625 -1.738281 2.109375 -1.875 C 1.960938 -2.019531 1.785156 -2.09375 1.578125 -2.09375 C 1.378906 -2.09375 1.203125 -2.023438 1.046875 -1.890625 C 0.898438 -1.753906 0.820312 -1.585938 0.8125 -1.390625 C 0.8125 -1.160156 0.882812 -0.96875 1.03125 -0.8125 C 1.1875 -0.664062 1.367188 -0.59375 1.578125 -0.59375 Z M 1.578125 -0.59375 "/></g></g></g><g fill="#3b2c27" fill-opacity="1"><g transform="translate(118.498096, 72.638786)"><g><path d="M 0.921875 -2.6875 L 2.203125 -1.046875 L 2.21875 -1.046875 L 2.21875 -2.6875 L 2.90625 -2.6875 L 2.90625 0 L 2.21875 0 L 0.9375 -1.640625 L 0.921875 -1.640625 L 0.921875 0 L 0.234375 0 L 0.234375 -2.6875 Z M 0.921875 -2.6875 "/></g></g></g><g fill="#3b2c27" fill-opacity="1"><g transform="translate(121.957519, 72.638786)"><g><path d="M 0.921875 -2.6875 L 0.921875 0 L 0.234375 0 L 0.234375 -2.6875 Z M 0.921875 -2.6875 "/></g></g></g><g fill="#3b2c27" fill-opacity="1"><g transform="translate(123.43052, 72.638786)"><g><path d="M 0.921875 -2.6875 L 0.921875 -0.59375 L 1.765625 -0.59375 L 1.765625 0 L 0.234375 0 L 0.234375 -2.6875 Z M 0.921875 -2.6875 "/></g></g></g><g fill="#3b2c27" fill-opacity="1"><g transform="translate(125.513355, 72.638786)"><g><path d="M 0.921875 -2.6875 L 0.921875 -0.59375 L 1.765625 -0.59375 L 1.765625 0 L 0.234375 0 L 0.234375 -2.6875 Z M 0.921875 -2.6875 "/></g></g></g><g fill="#3b2c27" fill-opacity="1"><g transform="translate(127.59619, 72.638786)"><g><path d="M 1.78125 -2.6875 L 2.796875 0 L 2.046875 0 L 1.875 -0.46875 L 0.90625 -0.46875 L 0.734375 0 L -0.015625 0 L 1.015625 -2.6875 Z M 1.109375 -1 L 1.6875 -1 L 1.40625 -1.859375 L 1.390625 -1.859375 Z M 1.109375 -1 "/></g></g></g></svg>